<svg id="Text" xmlns="http://www.w3.org/2000/svg" width="645.844" height="208.344" viewBox="0 0 645.844 208.344">
  <defs>
    <style>
      .cls-1 {
        fill: #a18a68;
      }

      .cls-1, .cls-2 {
        fill-rule: evenodd;
      }
    </style>
  </defs>
  <path id="S" class="cls-1" d="M177.625,179.375h20.833v20.833h83.334v83.334h-62.5V262.708H177.625v20.834h20.833v20.833H302.625V283.542h20.833V200.208H302.625V179.375H219.292v-62.5h62.5v20.833h41.666V116.875H302.625V96.042H198.458v20.833H177.625v62.5Z" transform="translate(-177.625 -96.031)"/>
  <path id="HOP" class="cls-2" d="M344.292,304.375h41.666V200.208h62.5V304.375h41.667V96.042H448.458v83.333h-62.5V96.042H344.292V304.375Zm166.666-20.833h20.834v20.833H635.958V283.542h20.834V116.875H635.958V96.042H531.792v20.833H510.958V283.542ZM615.125,116.875V283.542h-62.5V116.875h62.5Zm62.5,187.5h41.667V200.208h83.333V179.375h20.833v-62.5H802.625V96.042h-125V304.375Zm104.167-187.5v62.5h-62.5v-62.5h62.5Z" transform="translate(-177.625 -96.031)"/>
</svg>
